<?xml version="1.0" encoding="UTF-8"?>
<svg viewBox="0 0 1440 1440" xmlns="http://www.w3.org/2000/svg">
 <path d="m788.44 125.99c-8.341-5.941-16.914-10.935-25.524-15.006 38.01-17.495 29.57-66.319 29.57-66.319-34.541-9.7862-56.19 30.414-65.888 54.716-2.075-0.3493-4.129-0.6277-6.174-0.862l9.469-66.58s3.44-0.6498 7.021-13.645c3.959-14.396-17.914-20.841-30.695-9.9407-12.788 10.9 6.167 24.991 6.167 24.991l-3.353 64.467c-8.639-0.053001-16.835 1.0343-24.366 3.2221l-8.175-64.272s3.129-1.6929 3.129-15.254c0-15.019-22.661-14.414-32.04 0-9.373 14.41 12.503 22.038 12.503 22.038l13.553 61.735c-0.63904 0.314-1.278 0.636-1.896 0.968-10.59-21.11-32.977-53.518-68.041-45.324 0 0-5.458 26.11 11.585 44.603l-2.751 13.486 17.35 11.368-20.018-2.842 1.336 21.323h18.682l-18.682 8.531-1.336 24.164 20.018-4.265-18.682 12.796v22.741l11.341-3.554-12.677 13.504-1.332 22.745 12.009 1.419-10.677 5.684-1.332 22.746 10.673-1.423-10.673 8.531-3.341 25.587 8.673 2.843-8.005 3.558-1.332 35.537 10.009-2.13-10.677 9.949v28.43l5.336 2.131-3.336 3.553-4.008 32.691 8.009 2.847-6.669 2.13s-3.307 70.394-7.129 122.76c-13.22 79.088-29.126 152.12-47.5 198.09l-242.97 13.202c-2.507-0.42004-4.976-0.72003-7.428-0.96301-0.74698-0.075012-1.482-0.12-2.225-0.18201-1.755-0.13202-3.497-0.229-5.22-0.27802-0.763-0.021973-1.527-0.044006-2.282-0.047974-1.963-0.013977-3.905 0.029968-5.826 0.13202-0.40701 0.021973-0.81799 0.021973-1.216 0.04895-2.324 0.15405-4.614 0.39703-6.872 0.716-0.53101 0.079041-1.05 0.18103-1.581 0.26502-1.747 0.27802-3.473 0.60498-5.183 0.98102-0.63898 0.14197-1.269 0.28699-1.896 0.44202-1.739 0.42499-3.456 0.90198-5.145 1.428-0.43201 0.133-0.86801 0.25598-1.295 0.393-2.158 0.703-4.274 1.485-6.349 2.361-0.13701 0.057007-0.261 0.12805-0.39801 0.18103-1.905 0.81299-3.772 1.697-5.61 2.647-0.43199 0.22101-0.864 0.45599-1.295 0.69-1.631 0.875-3.229 1.803-4.797 2.78-0.336 0.20801-0.672 0.41101-1.009 0.62299-3.826 2.467-7.469 5.243-10.917 8.31-0.216 0.19-0.423 0.38898-0.63501 0.58398-1.527 1.383-3.013 2.824-4.461 4.327-0.224 0.23401-0.452 0.46399-0.676 0.703-3.287 3.478-6.374 7.244-9.229 11.302-0.016998 0.016968-0.028992 0.039001-0.04599 0.062012-1.377 1.958-2.689 3.991-3.963 6.077-0.153 0.25702-0.30699 0.50903-0.45599 0.76502-1.253 2.095-2.461 4.239-3.606 6.458-0.011993 0.026001-0.028992 0.044006-0.037003 0.070007-44.077 72.507-83.462 150.01-163.82 183.88l-0.7013-1.702-29.931-8.642-0.8299 13.87 10.324 2.14-13.818 5.28 0.3402 4.28 1.9505 5.62 13.395-4.42-13.843 6.53 11.212 12.53 11.536-13.95-5.2993 8.97 11.847 7.64 9.2538-20.32c0.4316-0.16998 0.8424-0.28998 1.2904-0.52997 67.356-29.403 100.85-71.067 138.75-131.85 0.91299 0.10199 1.851 0.28699 1.888 6.312 0 48.006 20.902 90.788 53.509 118.66-4.693 124.19-15.772 385.81-16.133 394.28h-0.013l-0.668 14.21 59.389-0.23-2.672-13.97h-0.061981c-17.155-51.21-10.789-262.53-6.108-372.79 9.681 4.36 19.914 7.5701 30.545 9.5701 7.017 124.3 10.59 361.01 10.706 368.91v0.20996h0.011993l0.938 12.82 49.376-3.7899s-1.78-14.46-2.672-14.93l-0.083 0.01c-20.138-46.59-26.051-247.1-27.786-360.85h240.06c7.398 0 14.407-0.59998 21.034-1.76-4.374 124.33-14.038 371.54-14.353 379.66h-0.013l-2.332 13.86 55.717-1.64-2.673-12.22h-0.058044c-16.847-54.5-8.623-293.97-4.485-390.92 6.672-3.79 12.78-8.32 18.304-13.54 6.73 114.4 10.158 384.49 10.266 393.09l-1.005 14.57 45.044-0.72-4.004-19.54-0.07 0.01c-21.13-58.18-23.612-356.52-23.911-425.95 10.819-24.659 15.977-54.641 15.977-87.005-0.008972-0.060974-0.017029-0.12299-0.026001-0.19l0.026 0.014c-0.038025-0.18604-0.070984-0.38-0.104-0.57501-1.465-10.612-3.025-20.567-4.727-29.888-22.316-172.59 11.092-491.82 22.952-594.25 51.293 33.451 109.35 32.231 131.94-3.762 23.445-37.358-0.22797-98.042-52.883-135.54z" fill="#ffd54f"/>
 <path d="m603.19 429.62s-3.3072 70.394-7.1288 122.76c28.537-170.71 44.562-369.7 45.857-386.1-1.3403-14.838 1.3819-28.819 8.7227-40.514 0.68463-1.0829 1.3983-2.1304 2.1453-3.1559-18.362-2.3604-30.064-8.9949-37.508-17.07l-2.7513 13.486 17.35 11.368-20.018-2.8421 1.336 21.327h18.682l-18.682 8.5262-1.336 24.165 20.018-4.2654-18.682 12.796v22.741l11.341-3.5538-12.677 13.503-1.3322 22.746 12.009 1.4189-10.677 5.6843-1.3322 22.746 10.673-1.4234-10.673 8.5309-3.3405 25.588 8.6729 2.842-8.0046 3.5538-1.332 35.537 10.009-2.1306-10.677 9.9496v28.43l5.3365 2.1305-3.3363 3.5538-4.0085 32.691 8.0087 2.8465-6.6644 2.1393z" fill="#3c2517"/>
 <path d="m490.95 837.03c-27.209 32.633-32.371 75.057-11.536 94.766s59.783 9.2247 86.984-23.404c27.213-32.633 32.375-75.066 11.54-94.775-20.835-19.7-59.779-9.2291-86.988 23.413z" fill="#3c2517"/>
 <path d="m675.32 985.02c-0.012451-2.8554-0.024902-5.4898-0.037537-7.8368 10.818-24.66 15.976-54.641 15.976-87.005-0.008301-0.06189-0.016418-0.12366-0.02478-0.19l0.0248 0.0131c-0.03717-0.18555-0.070679-0.38013-0.10358-0.57446-1.4648-10.612-3.0251-20.567-4.7266-29.889-0.31128-2.4133-0.60584-4.8664-0.90039-7.3329-2.2202-0.19885-4.4649-0.25195-6.7266 0.0177-25.636 3.0499-43.23 35.887-39.293 73.338 2.996 28.562 17.657 51.503 35.811 59.459z" fill="#3c2517"/>
 <path d="m679.68 657.41c0.69299-27.692 1.8299-55.795 3.2782-83.681-2.5105-0.62311-5.0916-0.85303-7.7058-0.53918-16.316 1.9448-27.566 22.374-25.122 45.628 2.2242 21.137 14.988 37.274 29.549 38.592z" fill="#3c2517"/>
 <path d="m601.76 708.59c22.192-26.618 25.881-61.722 8.241-78.412-7.0585-6.6744-16.474-9.3265-26.632-8.4822-8.8096 43.692-18.541 83-29.16 113.53 15.756-0.57019 33.637-9.954 47.55-26.64z" fill="#3c2517"/>
 <path d="m378.99 820.53c36.114 0 65.39-17.822 65.39-39.798 0-8.9772-4.9377-17.225-13.171-23.886l-110.59 6.0112c-4.4566 5.3793-7.0252 11.435-7.0252 17.875 0 21.976 29.276 39.798 65.394 39.798z" fill="#3c2517"/>
 <path d="m432.93 964c-25.337-26.3-60.472-31.665-78.473-11.978-18.005 19.678-12.055 56.948 13.283 83.248 2.4648 2.5547 5.0417 4.8529 7.6683 7.0101h74.552c13.154-20.522 6.324-54.044-17.03-78.28z" fill="#3c2517"/>
 <path d="m240.63 1006.7c21.931-7.4522 36.226-37.646 32.641-71.747-3.9338-37.447-27.906-65.324-53.542-62.27-12.461 1.4806-22.989 10.042-30.101 22.702 1.4193 44.696 20.935 84.459 51.003 111.32z" fill="#3c2517"/>
 <path d="m622.9 358.39c-3.3488 28.881-7.1124 59.384-11.295 90.329 4.6559 4.9283 9.934 7.5185 15.262 6.8821 14.038-1.6752 23.109-24.969 20.262-52.029-2.4066-22.945-12.623-41.178-24.23-45.182z" fill="#3c2517"/>
 <path d="m771.93 281.02c-1.3115-0.0177-12.246-0.25198-23.985-6.2368-12.104-6.113-25.068-18.838-28.01-43.091-0.19495-1.5558 0.83002-2.9835 2.2906-3.1869 1.4609-0.20326 2.8012 0.89294 2.9963 2.4443 2.8257 22.339 14.104 33.04 25.034 38.707 10.926 5.609 21.512 5.6886 21.769 5.6754 0.16217 0.004333 0.26575 0.013214 0.34876 0.026428 1.4606 0.19449 2.5021 1.6177 2.3155 3.1737-0.16998 1.4364-1.3196 2.4885-2.6435 2.4885h-0.11597z" fill="#3c2517"/>
 <path d="m7.1659 1009.4l13.818-5.2862-10.324-2.1351 0.8297-13.874 29.931 8.6366 7.1706 17.269-10.287 22.587-11.847-7.6423 5.299-8.964-11.536 13.95-11.212-12.531 13.843-6.5327-13.395 4.4244-1.9502-5.6223-0.3404-4.2787zm740.73-872.74c1.3484 6.9042 6.0086 11.722 10.399 10.745 4.3903-0.98134 6.8551-7.3682 5.5107-14.277-1.3527-6.9085-6.0046-11.718-10.403-10.745-4.3948 0.97688-6.8597 7.3727-5.5066 14.277zm-35.919 7.1782c2.9876 6.4975 8.8386 9.9762 13.067 7.7749 4.2283-2.21 5.2369-9.2645 2.249-15.753-2.9919-6.5064-8.8387-9.9805-13.063-7.7838-4.2283 2.2145-5.2409 9.2601-2.253 15.762zm122.76 81.462c0.82965 4.2522 3.8259 7.1826 6.6848 6.5506 2.8632-0.63638 4.5108-4.5968 3.6849-8.8446-0.83398-4.252-3.8259-7.1826-6.6932-6.5506-2.8592 0.63655-4.5065 4.5969-3.6765 8.8446zm-22.993 5.5074c1.8174 3.9516 5.187 6.1704 7.5232 4.9549 2.3405-1.2199 2.7637-5.4147 0.95032-9.3661-1.8176-3.956-5.187-6.1706-7.5232-4.9594-2.3362 1.2288-2.7637 5.4147-0.95032 9.3706zm-152.51 1178l-1.0043 14.569 45.044-0.7117-4.0042-19.546-40.036 5.6886zm-74.735 11.373l-2.3362 13.857 55.717-1.6399-2.6722-12.217h-50.708zm-266.52-11.373l0.9546 13.034 49.376-3.7922s-1.7803-14.454-2.6682-14.926l-47.662 5.6842zm-35.077-5.6888h-56.049l-0.6681 14.206 59.389-0.2299-2.6725-13.976z" fill="#3c2517"/>
 <path d="m296.36 250.05c9.86-5.41 19.994-9.958 30.173-13.664-44.933-15.93-34.956-60.388-34.956-60.388 40.833-8.911 66.424 27.695 77.888 49.823 2.453-0.31801 4.881-0.57201 7.299-0.785l-11.194-60.625s-4.066-0.592-8.3-12.424c-4.68-13.109 21.177-18.977 36.286-9.052 15.118 9.925-7.29 22.756-7.29 22.756l3.964 58.701c10.213-0.048004 19.901 0.942 28.804 2.934l9.664-58.524s-3.699-1.542-3.699-13.889c0-13.677 26.789-13.125 37.875 0 11.081 13.12-14.78 20.067-14.78 20.067l-16.021 56.214c0.755 0.286 1.511 0.579 2.241 0.881 12.519-19.222 38.984-48.732 80.434-41.27 0 0 6.451 23.775-13.696 40.614l3.253 12.28-20.51 10.351 23.664-2.588-1.58 19.416h-22.084l22.084 7.768 1.58 22.003-23.664-3.884 22.084 11.652v20.707l-13.406-3.236 14.986 12.296 1.575 20.711-14.197 1.292 12.622 5.176 1.575 20.711-12.617-1.296 12.617 7.768 3.948 23.299-10.252 2.588 9.462 3.24 1.575 32.359-11.832-1.94 12.622 9.06v25.887l-6.308 1.94 3.943 3.236 4.739 29.767-9.467 2.592 7.883 1.94s3.909 64.098 8.427 111.78c15.629 72.015 34.431 138.51 56.152 180.37l287.22 12.022c2.963-0.383 5.882-0.65594 8.781-0.87799 0.883-0.067993 1.751-0.10797 2.629-0.16498 2.075-0.12 4.135-0.20898 6.171-0.25299 0.90302-0.02002 1.805-0.040039 2.698-0.044006 2.321-0.013 4.616 0.028015 6.887 0.12 0.48096 0.02002 0.96698 0.02002 1.438 0.044983 2.747 0.14002 5.455 0.362 8.123 0.65204 0.62799 0.07196 1.241 0.16498 1.869 0.24097 2.065 0.25403 4.106 0.55102 6.127 0.89398 0.75494 0.12805 1.501 0.26105 2.2419 0.40204 2.055 0.38599 4.086 0.82098 6.082 1.3 0.51099 0.12097 1.026 0.23401 1.531 0.35797 2.551 0.64002 5.052 1.352 7.505 2.149 0.16199 0.052979 0.30896 0.117 0.47101 0.16498 2.252 0.74103 4.459 1.546 6.632 2.411 0.51001 0.20099 1.02 0.41498 1.53 0.62799 1.928 0.797 3.817 1.642 5.671 2.532 0.39697 0.18903 0.79498 0.37402 1.192 0.56702 4.523 2.246 8.83 4.774 12.906 7.567 0.255 0.17297 0.50104 0.354 0.75104 0.53101 1.805 1.26 3.561 2.572 5.273 3.94 0.26502 0.21399 0.53503 0.42297 0.80005 0.63995 3.885 3.168 7.534 6.597 10.909 10.291 0.019958 0.015991 0.034973 0.036987 0.053955 0.057007 1.629 1.783 3.179 3.634 4.685 5.534 0.18103 0.23303 0.36304 0.46301 0.539 0.69598 1.482 1.908 2.909 3.86 4.263 5.88 0.015015 0.023987 0.035034 0.040039 0.044006 0.065002 52.104 66.022 98.664 136.6 193.66 167.43l0.83-1.5499 35.38-7.87 0.9801 12.63-12.21 1.95 16.34 4.8101-0.4 3.9-2.3101 5.12-15.83-4.03 16.36 5.9399-13.25 11.41-13.64-12.7 6.26 8.1699-14 6.9501-10.94-18.5c-0.51001-0.15002-1-0.26001-1.52-0.4801-79.63-26.77-119.22-64.711-164.03-120.06-1.08 0.093018-2.18 0.26099-2.23 5.747 0 43.713-24.707 82.668-63.254 108.05 5.548 113.08 18.646 351.31 19.072 359.02h0.014954l0.79 12.94-70.206-0.21 3.159-12.72h0.072998c20.279-46.63 12.754-239.05 7.221-339.44-11.444 3.96-23.541 6.89-36.109 8.71-8.294 113.18-12.518 328.72-12.655 335.91v0.18994h-0.014954l-1.109 11.67-58.369-3.45s2.104-13.16 3.159-13.59l0.098 0.01c23.806-42.42 30.796-225 32.847-328.58h-283.79c-8.746 0-17.031-0.55005-24.865-1.6 5.17 113.21 16.595 338.31 16.968 345.7h0.015015l2.756 12.62-65.864-1.49 3.159-11.13h0.068024c19.916-49.62 10.194-267.67 5.303-355.95-7.888-3.4501-15.109-7.5801-21.638-12.33-7.956 104.16-12.008 350.1-12.136 357.93l1.188 13.26-53.248-0.64 4.733-17.8 0.083 0.01c24.979-52.98 27.912-324.64 28.266-387.86-12.789-22.45-18.886-49.75-18.886-79.22 0.009003-0.05603 0.019012-0.112 0.029022-0.17304l-0.029 0.012c0.044006-0.16901 0.083008-0.34601 0.12201-0.52301 1.732-9.663 3.576-18.727 5.587-27.215 26.382-157.15-13.112-447.84-27.131-541.1-60.636 30.459-129.27 29.348-155.97-3.425-27.716-34.017 0.269-89.273 62.514-123.42z" fill="#ff7f00"/>
 <path d="m515.35 530.53s3.9095 64.098 8.4272 111.78c-33.734-155.44-52.679-336.63-54.209-351.57 1.5843-13.511-1.6337-26.241-10.312-36.891-0.80939-0.98604-1.653-1.9399-2.536-2.8736 21.706-2.1493 35.54-8.1904 44.34-15.544l3.2523 12.28-20.51 10.352 23.664-2.5879-1.5792 19.42h-22.084l22.084 7.7637 1.5792 22.003-23.664-3.8839 22.084 11.652v20.708l-13.407-3.236 14.986 12.296 1.575 20.711-14.196 1.292 12.622 5.1759 1.575 20.711-12.617-1.2961 12.617 7.7679 3.9487 23.299-10.252 2.5878 9.4626 3.236 1.5746 32.359-11.832-1.94 12.622 9.0598v25.887l-6.3084 1.9399 3.9438 3.236 4.7386 29.767-9.4672 2.5919 7.8781 1.948z" fill="#3c2517"/>
 <path d="m648.02 901.5c32.164 29.715 38.267 68.344 13.637 86.291s-70.672 8.3997-102.83-21.311c-32.17-29.715-38.272-68.352-13.642-86.299 24.63-17.938 70.667-8.4036 102.83 21.319z" fill="#3c2517"/>
 <path d="m430.07 1036.3c0.014709-2.6 0.029449-4.9988 0.044312-7.136-12.789-22.454-18.886-49.754-18.886-79.223 0.009796-0.056335 0.01947-0.11261 0.029419-0.17304l-0.0294 0.012c0.044006-0.16894 0.083679-0.34613 0.1225-0.52307 1.7317-9.6634 3.576-18.727 5.5874-27.216 0.36798-2.1974 0.71619-4.4312 1.0644-6.6771 2.6244-0.18103 5.2782-0.22937 7.9518 0.016174 30.305 2.777 51.104 32.677 46.449 66.779-3.5417 26.008-20.872 46.896-42.334 54.141z" fill="#3c2517"/>
 <path d="m424.93 737.94c-0.81906-25.215-2.1631-50.804-3.8751-76.197 2.9677-0.56738 6.0189-0.77673 9.1093-0.49097 19.288 1.7708 32.587 20.373 29.697 41.548-2.6294 19.246-17.718 33.941-34.932 35.14z" fill="#3c2517"/>
 <path d="m517.03 784.55c-26.234-24.237-30.595-56.202-9.7419-71.399 8.3441-6.0774 19.474-8.4924 31.483-7.7236 10.414 39.785 21.917 75.577 34.47 103.38-18.626-0.51916-39.763-9.0638-56.211-24.257z" fill="#3c2517"/>
 <path d="m780.38 886.48c-42.692 0-77.299-16.228-77.299-36.239 0-8.1743 5.8371-15.684 15.569-21.75l130.73 5.4735c5.2682 4.8982 8.3046 10.412 8.3046 16.276 0 20.011-34.607 36.239-77.304 36.239z" fill="#3c2517"/>
 <path d="m716.61 1017.1c29.952-23.947 71.486-28.833 92.766-10.907 21.285 17.918 14.25 51.855-15.702 75.802-2.9138 2.3263-5.96 4.4189-9.065 6.3832h-88.13c-15.55-18.687-7.4758-49.211 20.132-71.278z" fill="#3c2517"/>
 <path d="m943.94 1056c-25.925-6.7856-42.824-34.279-38.586-65.33 4.6503-34.098 32.989-59.482 63.294-56.701 14.731 1.3483 27.176 9.1443 35.584 20.671-1.6777 40.698-24.748 76.905-60.292 101.36z" fill="#3c2517"/>
 <path d="m492.05 465.66c3.9587 26.298 8.4079 54.073 13.352 82.25-5.5039 4.4876-11.743 6.8461-18.042 6.2666-16.595-1.5254-27.318-22.736-23.953-47.375 2.8449-20.893 14.922-37.495 28.642-41.141z" fill="#3c2517"/>
 <path d="m315.87 395.22c1.5504-0.016113 14.476-0.22943 28.353-5.679 14.309-5.5662 29.634-17.154 33.112-39.237 0.23032-1.4167-0.98126-2.7167-2.7078-2.9019-1.727-0.18512-3.3113 0.81308-3.5419 2.2257-3.3403 20.341-16.673 30.085-29.594 35.245-12.916 5.1073-25.43 5.1798-25.734 5.1678-0.19162 0.003937-0.314 0.012024-0.41211 0.024048-1.7268 0.17712-2.958 1.473-2.7373 2.8899 0.20102 1.308 1.5601 2.2659 3.1249 2.2659h0.13712z" fill="#3c2517"/>
 <path d="m1219.9 1058.4l-16.335-4.8134 12.205-1.9441-0.9808-12.634-35.383 7.8641-8.4767 15.725 12.16 20.567 14.005-6.9589-6.2642-8.1622 13.637 12.702 13.254-11.41-16.364-5.9484 15.835 4.0287 2.3054-5.1195 0.4023-3.896zm-875.64-794.69c-1.594 6.2867-7.1031 10.674-12.293 9.7842-5.1899-0.89356-8.1036-6.7092-6.5144-13 1.5992-6.2906 7.0983-10.67 12.298-9.7842 5.1954 0.88953 8.1092 6.7133 6.5097 13zm42.461 6.5362c-3.5317 5.9164-10.448 9.084-15.447 7.0796-4.9984-2.0124-6.1906-8.4359-2.6586-14.344 3.5369-5.9245 10.449-9.0879 15.442-7.0877 4.9985 2.0164 6.1955 8.4319 2.6635 14.352zm-145.12 74.176c-0.98068 3.8718-4.5228 6.5402-7.9023 5.9647-3.3846-0.57947-5.3323-4.1857-4.356-8.0535 0.9859-3.8717 4.5228-6.5402 7.9122-5.9647 3.38 0.57965 5.3274 4.1858 4.3461 8.0536zm27.181 5.0149c-2.1484 3.5981-6.1317 5.6185-8.8934 4.5118-2.7669-1.1108-3.267-4.9304-1.1234-8.5284 2.1486-3.6022 6.1318-5.6187 8.8934-4.5159 2.7618 1.1189 3.2672 4.9304 1.1234 8.5325zm180.29 1072.7l1.1873 13.266-53.248-0.6479 4.7334-17.798 47.327 5.1798zm88.346 10.356l2.7617 12.617-65.865-1.4932 3.1588-11.124h59.944zm315.06-10.356l-1.1284 11.869-58.369-3.453s2.1045-13.161 3.1541-13.592l56.344 5.1758zm41.465-5.1801h66.257l0.7897 12.936-70.206-0.2094 3.1592-12.726z" fill="#3c2517"/>
</svg>
